<mxfile host="app.diagrams.net" modified="2021-03-21T22:16:22.026Z" agent="5.0 (Windows NT 10.0; Win64; x64) AppleWebKit/537.36 (KHTML, like Gecko) Chrome/89.0.4389.90 Safari/537.36" etag="S6CfNgxWDQNznFl5Kr9D" version="14.4.9" type="github">
  <diagram id="C5RBs43oDa-KdzZeNtuy" name="Page-1">
    <mxGraphModel dx="1422" dy="762" grid="1" gridSize="10" guides="1" tooltips="1" connect="1" arrows="1" fold="1" page="1" pageScale="1" pageWidth="827" pageHeight="1169" math="0" shadow="0">
      <root>
        <mxCell id="WIyWlLk6GJQsqaUBKTNV-0" />
        <mxCell id="WIyWlLk6GJQsqaUBKTNV-1" parent="WIyWlLk6GJQsqaUBKTNV-0" />
        <mxCell id="QOfzWd9f911VW4yFw9Vx-23" style="edgeStyle=orthogonalEdgeStyle;rounded=0;orthogonalLoop=1;jettySize=auto;html=1;" parent="WIyWlLk6GJQsqaUBKTNV-1" source="QOfzWd9f911VW4yFw9Vx-0" target="QOfzWd9f911VW4yFw9Vx-4" edge="1">
          <mxGeometry relative="1" as="geometry" />
        </mxCell>
        <mxCell id="QOfzWd9f911VW4yFw9Vx-0" value="codes" style="shape=dataStorage;whiteSpace=wrap;html=1;fixedSize=1;fillColor=#FFF2CC;" parent="WIyWlLk6GJQsqaUBKTNV-1" vertex="1">
          <mxGeometry x="350" y="72.5" width="136" height="50" as="geometry" />
        </mxCell>
        <mxCell id="QOfzWd9f911VW4yFw9Vx-1" value="videos" style="shape=dataStorage;whiteSpace=wrap;html=1;fixedSize=1;fillColor=#C3ABD0;" parent="WIyWlLk6GJQsqaUBKTNV-1" vertex="1">
          <mxGeometry x="350" y="202.5" width="136" height="50" as="geometry" />
        </mxCell>
        <mxCell id="QOfzWd9f911VW4yFw9Vx-24" style="edgeStyle=orthogonalEdgeStyle;rounded=0;orthogonalLoop=1;jettySize=auto;html=1;entryX=0;entryY=0;entryDx=67.5;entryDy=55;entryPerimeter=0;" parent="WIyWlLk6GJQsqaUBKTNV-1" source="QOfzWd9f911VW4yFw9Vx-2" target="QOfzWd9f911VW4yFw9Vx-4" edge="1">
          <mxGeometry relative="1" as="geometry" />
        </mxCell>
        <mxCell id="QOfzWd9f911VW4yFw9Vx-2" value="tweets" style="shape=dataStorage;whiteSpace=wrap;html=1;fixedSize=1;fillColor=#F19C99;" parent="WIyWlLk6GJQsqaUBKTNV-1" vertex="1">
          <mxGeometry x="350" y="332.5" width="136" height="50" as="geometry" />
        </mxCell>
        <mxCell id="QOfzWd9f911VW4yFw9Vx-20" style="edgeStyle=orthogonalEdgeStyle;rounded=0;orthogonalLoop=1;jettySize=auto;html=1;entryX=0.882;entryY=0.5;entryDx=0;entryDy=0;entryPerimeter=0;startArrow=classic;startFill=1;endArrow=none;endFill=0;" parent="WIyWlLk6GJQsqaUBKTNV-1" source="QOfzWd9f911VW4yFw9Vx-4" target="QOfzWd9f911VW4yFw9Vx-1" edge="1">
          <mxGeometry relative="1" as="geometry" />
        </mxCell>
        <mxCell id="QOfzWd9f911VW4yFw9Vx-4" value="Bots" style="shape=display;whiteSpace=wrap;html=1;" parent="WIyWlLk6GJQsqaUBKTNV-1" vertex="1">
          <mxGeometry x="610" y="200" width="130" height="55" as="geometry" />
        </mxCell>
        <mxCell id="QOfzWd9f911VW4yFw9Vx-10" style="edgeStyle=orthogonalEdgeStyle;rounded=0;orthogonalLoop=1;jettySize=auto;html=1;entryX=0;entryY=0.5;entryDx=0;entryDy=0;" parent="WIyWlLk6GJQsqaUBKTNV-1" source="QOfzWd9f911VW4yFw9Vx-9" target="QOfzWd9f911VW4yFw9Vx-2" edge="1">
          <mxGeometry relative="1" as="geometry" />
        </mxCell>
        <mxCell id="QOfzWd9f911VW4yFw9Vx-9" value="ScrapperTW" style="shape=display;whiteSpace=wrap;html=1;flipH=1;" parent="WIyWlLk6GJQsqaUBKTNV-1" vertex="1">
          <mxGeometry x="110" y="330" width="130" height="55" as="geometry" />
        </mxCell>
        <mxCell id="QOfzWd9f911VW4yFw9Vx-12" style="edgeStyle=orthogonalEdgeStyle;rounded=0;orthogonalLoop=1;jettySize=auto;html=1;entryX=0;entryY=0.5;entryDx=0;entryDy=0;" parent="WIyWlLk6GJQsqaUBKTNV-1" source="QOfzWd9f911VW4yFw9Vx-11" target="QOfzWd9f911VW4yFw9Vx-1" edge="1">
          <mxGeometry relative="1" as="geometry" />
        </mxCell>
        <mxCell id="QOfzWd9f911VW4yFw9Vx-11" value="ScrapperYT" style="shape=display;whiteSpace=wrap;html=1;flipH=1;" parent="WIyWlLk6GJQsqaUBKTNV-1" vertex="1">
          <mxGeometry x="110" y="200" width="130" height="55" as="geometry" />
        </mxCell>
        <mxCell id="QOfzWd9f911VW4yFw9Vx-14" style="edgeStyle=orthogonalEdgeStyle;rounded=0;orthogonalLoop=1;jettySize=auto;html=1;entryX=0;entryY=0.5;entryDx=0;entryDy=0;" parent="WIyWlLk6GJQsqaUBKTNV-1" source="QOfzWd9f911VW4yFw9Vx-13" target="QOfzWd9f911VW4yFw9Vx-0" edge="1">
          <mxGeometry relative="1" as="geometry" />
        </mxCell>
        <mxCell id="QOfzWd9f911VW4yFw9Vx-13" value="ScrapperCodes" style="shape=display;whiteSpace=wrap;html=1;flipH=1;" parent="WIyWlLk6GJQsqaUBKTNV-1" vertex="1">
          <mxGeometry x="110" y="70" width="130" height="55" as="geometry" />
        </mxCell>
      </root>
    </mxGraphModel>
  </diagram>
</mxfile>
